<svg width="40" height="53" viewBox="0 0 40 53" fill="none" xmlns="http://www.w3.org/2000/svg">
<path d="M19.9998 19.795C25.466 19.795 29.8973 15.3637 29.8973 9.8975C29.8973 4.43126 25.466 0 19.9998 0C14.5336 0 10.1023 4.43126 10.1023 9.8975C10.1023 15.3637 14.5336 19.795 19.9998 19.795Z" fill="#4EB644"/>
<path d="M40 42.6077C40 37.3033 37.8929 32.2163 34.1421 28.4655C30.3914 24.7148 25.3043 22.6077 20 22.6077C14.6957 22.6077 9.60859 24.7148 5.85786 28.4655C2.10714 32.2163 0 37.3033 0 42.6077V42.6979C0.0300369 44.9928 0.879676 47.2013 2.39549 48.9247C3.9113 50.648 5.99336 51.7725 8.26568 52.0952C12.5089 52.7436 16.7985 53.0398 21.0906 52.9808C24.6352 52.9292 28.1722 52.6361 31.6769 52.1034C33.9714 51.7794 36.0734 50.6428 37.6008 48.9003C39.1282 47.1577 39.9795 44.9248 40 42.6077Z" fill="#4EB644"/>
</svg>
