<svg width="166" height="118" viewBox="0 0 166 118" fill="none" xmlns="http://www.w3.org/2000/svg">
<path d="M1 1H165V117H1V1Z" stroke="#3E9C35" stroke-width="2"/>
<path d="M133.062 13H32.5625C29.2307 13 26.0354 14.3235 23.6795 16.6795C21.3235 19.0354 20 22.2307 20 25.5625V88.375C20.0022 89.2193 20.2596 90.0432 20.7383 90.7386C21.2171 91.4341 21.8949 91.9685 22.6828 92.2719C23.4707 92.5753 24.3319 92.6334 25.1534 92.4387C25.9749 92.2439 26.7184 91.8054 27.2863 91.1806L61.4144 53.1581L84.8644 87.035C85.1886 87.4994 85.6036 87.8932 86.0843 88.1926C86.5651 88.492 87.1015 88.6908 87.6613 88.7769C88.2211 88.8631 88.7925 88.8347 89.341 88.6937C89.8895 88.5526 90.4037 88.3017 90.8525 87.9562L115.978 68.7356L138.506 91.6413C139.086 92.2108 139.82 92.5991 140.617 92.7589C141.414 92.9187 142.24 92.843 142.995 92.5411C143.75 92.2392 144.4 91.7241 144.867 91.0586C145.334 90.3932 145.598 89.6062 145.625 88.7938V25.5625C145.625 22.2307 144.301 19.0354 141.946 16.6795C139.59 14.3235 136.394 13 133.062 13Z" fill="#3E9C35" fill-opacity="0.7"/>
<path d="M144.409 85.8629L119.284 60.3191C118.567 59.5938 117.61 59.1553 116.592 59.0859C115.574 59.0165 114.566 59.321 113.757 59.9422L85.7843 81.4241C84.9365 82.0804 84.3728 83.0368 84.2092 84.0963C84.0456 85.1558 84.2946 86.2377 84.9049 87.1191L96.1274 103.325C96.5122 103.879 97.0254 104.333 97.6233 104.646C98.2212 104.96 98.886 105.124 99.5611 105.125H133.061C136.393 105.125 139.588 103.802 141.944 101.446C144.3 99.09 145.624 95.8946 145.624 92.5629V88.7941C145.619 87.6956 145.183 86.6428 144.409 85.8629Z" fill="#3E9C35"/>
<path d="M102.996 98.5508L65.3089 44.1133C64.9496 43.5903 64.4762 43.1558 63.9244 42.8426C63.3725 42.5294 62.7568 42.3457 62.1235 42.3053C61.4903 42.265 60.8562 42.3691 60.2691 42.6098C59.682 42.8504 59.1573 43.2214 58.7345 43.6946L21.047 85.5696C20.3642 86.3438 19.9914 87.3429 20.0002 88.3752V92.5627C20.0002 95.8945 21.3237 99.0898 23.6796 101.446C26.0355 103.802 29.2309 105.125 32.5627 105.125H99.5627C100.327 105.124 101.076 104.914 101.729 104.517C102.382 104.121 102.914 103.553 103.267 102.876C103.621 102.199 103.783 101.438 103.735 100.676C103.687 99.9133 103.432 99.1785 102.996 98.5508Z" fill="#3E9C35"/>
<path d="M107.375 41.75C112 41.75 115.75 38.0004 115.75 33.375C115.75 28.7496 112 25 107.375 25C102.75 25 99 28.7496 99 33.375C99 38.0004 102.75 41.75 107.375 41.75Z" fill="white"/>
</svg>
